<?xml version="1.0" encoding="utf-8"?>
<svg viewBox="0 0 500 500" xmlns="http://www.w3.org/2000/svg" xmlns:xlink="http://www.w3.org/1999/xlink">
  <defs>
    <linearGradient id="linearGradient33977" x1="67.550545" y1="207.76782" x2="67.429138" y2="178.01292" gradientUnits="userSpaceOnUse" gradientTransform="translate(3.2414293,-26.311454)" xlink:href="#linearGradient28540"/>
    <linearGradient id="linearGradient28540">
      <stop style="stop-color:#01b2ff;stop-opacity:1;" offset="0.0816" id="stop28536"/>
      <stop style="stop-color:#0098db;stop-opacity:1;" offset="0.5429" id="stop28548"/>
      <stop style="stop-color:#01b2ff;stop-opacity:1;" offset="1" id="stop28538"/>
    </linearGradient>
    <linearGradient id="linearGradient29346" x1="71.667427" y1="161.67424" x2="72.774391" y2="193.66814" gradientUnits="userSpaceOnUse" gradientTransform="translate(3.2414293,-26.311454)" xlink:href="#linearGradient29344"/>
    <linearGradient id="linearGradient29344">
      <stop style="stop-color:#ecbe48;stop-opacity:1;" offset="0" id="stop29340"/>
      <stop style="stop-color:#ff3e4e;stop-opacity:1;" offset="1" id="stop29342"/>
    </linearGradient>
    <linearGradient id="linearGradient29290" x1="148.5195" y1="173.35547" x2="124.28975" y2="151.96129" gradientUnits="userSpaceOnUse" gradientTransform="translate(3.2414293,-26.311454)" xlink:href="#linearGradient28540"/>
    <linearGradient id="linearGradient28396" x1="149.30635" y1="90.971756" x2="149.96301" y2="113.9957" gradientUnits="userSpaceOnUse" gradientTransform="translate(3.2414293,-26.311454)" xlink:href="#linearGradient24895"/>
    <linearGradient id="linearGradient24895">
      <stop style="stop-color:#7e74a9;stop-opacity:1;" offset="0" id="stop28361"/>
      <stop style="stop-color:#e42a91;stop-opacity:1;" offset="1" id="stop28363"/>
    </linearGradient>
    <linearGradient id="linearGradient28388" x1="133.23598" y1="89.061028" x2="133.55792" y2="113.15593" gradientUnits="userSpaceOnUse" gradientTransform="translate(3.2414293,-26.311454)" xlink:href="#linearGradient24895"/>
    <linearGradient id="linearGradient28380" x1="113.98899" y1="85.714394" x2="114.35451" y2="113.66793" gradientUnits="userSpaceOnUse" gradientTransform="translate(3.2414293,-26.311454)" xlink:href="#linearGradient24895"/>
    <linearGradient id="linearGradient24897" x1="70.28479" y1="79.660515" x2="70.110725" y2="99.255287" gradientUnits="userSpaceOnUse" gradientTransform="translate(3.2414293,-26.311454)" xlink:href="#linearGradient24895"/>
    <linearGradient id="linearGradient28372" x1="76.586891" y1="99.55201" x2="76.972801" y2="113.32611" gradientUnits="userSpaceOnUse" gradientTransform="translate(3.2414293,-26.311454)" xlink:href="#linearGradient24895"/>
    <linearGradient id="linearGradient29282" x1="67.062119" y1="151.92596" x2="95.894073" y2="152.75723" gradientUnits="userSpaceOnUse" gradientTransform="translate(3.2414293,-26.311454)" xlink:href="#linearGradient28540"/>
    <linearGradient id="linearGradient29298" x1="66.076752" y1="205.49698" x2="59.151943" y2="238.05392" gradientUnits="userSpaceOnUse" gradientTransform="translate(3.2414293,-26.311454)" xlink:href="#linearGradient28540"/>
    <linearGradient id="linearGradient29338" x1="113.71949" y1="201.26398" x2="159.81999" y2="201.39775" gradientUnits="userSpaceOnUse" gradientTransform="translate(3.2414293,-26.311454)" xlink:href="#linearGradient28540"/>
    <linearGradient id="linearGradient29330" x1="122.57647" y1="198.58934" x2="135.34241" y2="193.86273" gradientUnits="userSpaceOnUse" gradientTransform="translate(3.2414293,-26.311454)" xlink:href="#linearGradient28540"/>
    <linearGradient id="linearGradient29322" x1="125.42116" y1="198.62973" x2="149.44539" y2="195.92783" gradientUnits="userSpaceOnUse" gradientTransform="translate(3.2414293,-26.311454)" xlink:href="#linearGradient28540"/>
    <linearGradient id="linearGradient29314" x1="114.11356" y1="181.26889" x2="160.06285" y2="181.64828" gradientUnits="userSpaceOnUse" gradientTransform="translate(3.2414293,-26.311454)" xlink:href="#linearGradient28540"/>
    <linearGradient id="linearGradient29306" x1="149.35817" y1="131.45592" x2="149.68263" y2="176.20155" gradientUnits="userSpaceOnUse" gradientTransform="translate(3.2414293,-26.311454)" xlink:href="#linearGradient28540"/>
    <linearGradient id="linearGradient28542" x1="95.045502" y1="115.53092" x2="95.790443" y2="215.66168" gradientUnits="userSpaceOnUse" gradientTransform="translate(3.2414293,-26.311454)" xlink:href="#linearGradient28540"/>
  </defs>
  <g id="g35864" transform="matrix(3.516035, 0, 0, 3.516035, -123.060471, -174.68721)" style="">
    <path style="fill:url(#linearGradient28542);fill-opacity:1;stroke-width:0.264583" d="m 108.13752,103.89469 c 16.99121,0.0124 33.98269,0.0247 42.60175,-0.0572 8.61905,-0.0819 8.86616,-0.25799 9.10106,-0.51367 0.23489,-0.25567 0.45765,-0.59099 0.61614,-0.90445 0.15849,-0.31345 0.25271,-0.60513 0.28304,-1.56251 0.0303,-0.957382 -0.003,-2.580482 0.002,-4.386512 0.006,-1.80603 0.051,-3.79484 0.0136,-4.88076 -0.0374,-1.08593 -0.15751,-1.26897 -0.31112,-1.50677 -0.15361,-0.23781 -0.34069,-0.53037 -0.53291,-0.73194 -0.19223,-0.20158 -0.38971,-0.31202 -0.58767,-0.40865 -0.19797,-0.0966 -0.3964,-0.17937 -15.74474,-0.18429 -15.34834,-0.005 -45.845311,0.0681 -61.226261,0.15955 -15.380949,0.0914 -15.645124,0.20127 -15.89463,0.3502 -0.249506,0.14892 -0.484231,0.33688 -0.663425,0.57826 -0.179193,0.24138 -0.302762,0.536 -0.360049,2.6506 -0.05729,2.1146 -0.04834,6.04887 -0.0064,8.165912 0.04194,2.11705 0.116808,2.41673 0.296485,2.6583 0.179678,0.24157 0.463921,0.42513 0.690383,0.55319 0.226463,0.12806 0.395099,0.20066 4.733276,0.23288 4.338177,0.0322 12.84533,0.0242 21.35292,0.0162 0.0787,21.95672 0.15742,43.91278 0.22646,55.14384 0.069,11.23106 0.12838,11.73681 0.1982,12.30007 0.0698,0.56327 0.15013,1.18402 0.26506,1.87753 0.11494,0.69352 0.26447,1.45975 0.46682,2.34524 0.20235,0.8855 0.45747,1.8902 0.73639,2.77127 0.27892,0.88107 0.58158,1.63846 1.07931,2.50332 0.49774,0.86486 1.19044,1.83715 1.90206,2.71559 0.71162,0.87845 1.44208,1.66303 2.42027,2.40291 0.978181,0.73988 2.203971,1.43511 3.346911,1.9321 1.14295,0.497 2.20297,0.79583 3.08972,1.0152 0.88675,0.21938 1.60018,0.35931 2.20712,0.47248 0.60695,0.11317 1.10738,0.19959 1.88513,0.20692 0.77776,0.007 1.83286,-0.0644 2.98078,-0.16707 1.14793,-0.10268 2.38862,-0.23634 3.55137,-0.4715 1.16274,-0.23516 2.24754,-0.5718 3.088,-0.81739 0.84046,-0.24558 1.43652,-0.40013 2.06858,-0.61716 0.63206,-0.21704 1.30015,-0.49656 1.83649,-0.84547 0.53634,-0.3489 0.94105,-0.76724 1.32304,-1.2109 0.382,-0.44365 0.74129,-0.91264 1.11233,-1.52029 0.37104,-0.60765 0.75383,-1.35397 1.04377,-2.03298 0.28994,-0.67901 0.48701,-1.29071 0.59748,-1.97636 0.11048,-0.68565 0.13431,-1.44528 0.0616,-2.19704 -0.0727,-0.75176 -0.24201,-1.49566 -0.52916,-2.12792 -0.28716,-0.63226 -0.69229,-1.15282 -1.07357,-1.5442 -0.38127,-0.39138 -0.73873,-0.65348 -1.33721,-0.68487 -0.59847,-0.0314 -1.43782,0.16819 -2.6595,0.4673 -1.22167,0.29912 -2.82557,0.69775 -4.42429,0.9009 -1.59872,0.20316 -3.19223,0.2108 -4.2347,0.10894 -1.04247,-0.10186 -1.53389,-0.31333 -2.03695,-0.6422 -0.50305,-0.32886 -1.01767,-0.77519 -1.46305,-1.26757 -0.44538,-0.49238 -0.82142,-1.03084 -1.15767,-1.4914 -0.33625,-0.46055 -0.63273,-0.84318 -0.78192,-12.12666 -0.14919,-11.28349 -0.15085,-33.46718 -0.15252,-55.65104 0,0 -2.4e-4,8e-5 -2.4e-4,8e-5 z" id="path463"/>
    <path style="fill:url(#linearGradient29306);fill-opacity:1;stroke-width:0.264583" d="m 158.82049,105.26102 c 0.12969,0.26198 0.38892,0.78564 0.60494,1.33581 0.21602,0.55017 0.3889,1.12683 0.57661,1.92248 0.18771,0.79564 0.39028,1.81021 0.57314,2.64602 0.18286,0.83581 0.34598,1.4928 0.44845,2.55607 0.10246,1.06327 0.14433,2.5328 0.14359,3.73495 -7.5e-4,1.20216 -0.0441,2.13689 -0.20154,2.95207 -0.15743,0.81518 -0.42889,1.51087 -0.74943,2.16987 -0.32054,0.65899 -0.69015,1.28131 -1.03977,1.87004 -0.34962,0.58872 -0.67923,1.14381 -0.8634,1.4825 -0.18418,0.33869 -0.2229,0.46084 -0.31036,0.78991 -0.0875,0.32906 -0.22365,0.86497 -0.22285,1.43478 8.1e-4,0.56981 0.13848,1.17336 0.62814,2.01019 0.48967,0.83682 1.33114,1.90685 2.35599,3.28472 1.02485,1.37786 2.23304,3.06346 3.11503,4.49614 0.88199,1.43269 1.4378,2.61237 1.74344,3.41119 0.30564,0.79882 0.36122,1.21677 0.41238,1.91329 0.0512,0.69651 0.098,1.67157 0.0115,2.37736 -0.0865,0.70578 -0.30621,1.14242 -0.68477,1.61652 -0.37855,0.47411 -0.91598,0.98575 -1.44173,1.33974 -0.52576,0.35398 -1.03995,0.55033 -1.7863,0.79564 -0.74635,0.2453 -1.72482,0.53953 -2.83034,0.74698 -1.10552,0.20745 -2.3381,0.32808 -4.62422,0.36759 -2.28612,0.0395 -5.62567,-0.002 -7.53438,-0.11903 -1.9087,-0.11691 -2.38653,-0.3092 -2.77727,-0.58912 -0.39074,-0.27993 -0.69428,-0.64762 -0.85704,-1.07354 -0.16275,-0.42592 -0.18448,-0.91002 -0.0839,-1.33579 0.10059,-0.42577 0.32354,-0.79297 0.59422,-1.13636 0.27067,-0.3434 0.58901,-0.66289 0.77958,-0.82331 0.19056,-0.16042 0.25315,-0.16175 2.44692,-0.15883 2.19378,0.003 6.51859,0.0101 8.84411,-0.0726 2.32552,-0.0827 2.65181,-0.25522 3.08569,-0.35751 0.43387,-0.1023 0.97516,-0.13439 1.31133,-0.25178 0.33618,-0.11738 0.46752,-0.32012 0.3738,-0.88789 -0.0937,-0.56778 -0.41264,-1.5008 -1.36701,-3.06529 -0.95437,-1.56449 -2.54421,-3.7603 -3.73255,-5.47858 -1.18834,-1.71828 -1.97508,-2.95892 -2.38122,-3.86946 -0.40614,-0.91054 -0.43147,-1.49089 -0.44163,-2.22156 -0.0102,-0.73067 -0.005,-1.6116 0.051,-2.30399 0.0561,-0.6924 0.16333,-1.19616 0.34861,-1.74566 0.18527,-0.54951 0.44859,-1.14466 0.82923,-1.85639 0.38064,-0.71173 0.87857,-1.53996 1.23103,-2.15229 0.35245,-0.61233 0.55943,-1.00876 0.65867,-1.65318 0.0992,-0.64442 0.0907,-1.53697 0.0601,-2.37305 -0.0306,-0.83608 -0.0832,-1.61565 -0.14188,-2.41742 -0.0587,-0.80176 -0.1233,-1.62566 -0.23053,-2.31968 -0.10722,-0.69401 -0.25707,-1.25814 -0.4146,-1.82243 -0.15754,-0.56428 -0.32276,-1.12869 -0.46018,-1.58664 -0.13742,-0.45795 -0.24703,-0.80941 -0.33462,-1.18778 -0.0876,-0.37837 -0.1531,-0.78363 -0.09,-1.14004 0.0631,-0.35642 0.25496,-0.66375 0.50166,-0.97113 0.24669,-0.30738 0.54817,-0.61473 0.82097,-0.77187 0.2728,-0.15715 0.51664,-0.16408 0.84269,-0.17594 0.32604,-0.0119 0.73426,-0.0286 1.09456,0.0377 0.3603,0.0663 0.6726,0.21552 0.82859,0.29006 0.15599,0.0745 0.15592,0.0746 0.28561,0.33654 z" id="path467"/>
    <path style="fill:url(#linearGradient29314);fill-opacity:1;stroke-width:0.264583" d="m 161.52435,158.39813 c 0.17779,-0.13379 0.53332,-0.40133 0.81918,-0.66075 0.28586,-0.25942 0.5021,-0.51076 0.65982,-0.82039 0.15772,-0.30963 0.25694,-0.67768 0.2897,-1.15441 0.0328,-0.47672 -9.7e-4,-1.06217 -0.17137,-1.58844 -0.1704,-0.52626 -0.47762,-0.99331 -0.76902,-1.33186 -0.2914,-0.33856 -0.56705,-0.54851 -5.18684,-0.64037 -4.61979,-0.0918 -13.58333,-0.0654 -18.17139,0.0832 -4.58807,0.14862 -4.80018,0.41932 -5.02143,0.62278 -0.22125,0.20345 -0.45175,0.33972 -0.59961,0.51318 -0.14786,0.17346 -0.21297,0.38393 -0.28411,0.60631 -0.0711,0.22237 -0.1483,0.45667 -0.17162,0.85216 -0.0233,0.39549 0.007,0.95204 0.0821,1.34364 0.075,0.39159 0.1943,0.61818 0.33887,0.79668 0.14457,0.17849 0.31426,0.30898 0.47468,0.46588 0.16041,0.1569 0.31161,0.34015 0.46697,0.47978 0.15536,0.13963 0.31479,0.23571 0.45102,0.31131 0.13623,0.0756 0.24922,0.13072 4.68133,0.16976 4.43211,0.0391 13.18303,0.0622 17.55845,0.0737 4.37541,0.0116 4.37546,0.0116 4.55325,-0.12223 z" id="path471"/>
    <path style="fill:url(#linearGradient29322);fill-opacity:1;stroke-width:0.264583" d="m 148.83323,163.13514 c -0.0358,-0.18552 -0.10742,-0.55685 -0.26442,-0.85638 -0.157,-0.29952 -0.39958,-0.52718 -0.74306,-0.73159 -0.34349,-0.20441 -0.7879,-0.38544 -1.22102,-0.50273 -0.43311,-0.11729 -0.85488,-0.17075 -1.2888,-0.13327 -0.43392,0.0375 -0.87985,0.166 -1.22282,0.39901 -0.34297,0.233 -0.58274,0.57036 -0.75177,0.86176 -0.16903,0.29139 -0.26728,0.5367 -0.33286,0.77418 -0.0656,0.23747 -0.0985,0.46701 -0.11852,1.17145 -0.02,0.70444 -0.0271,1.88343 -0.0342,3.06271 -0.50205,0.0944 -1.0039,0.18877 -1.57572,0.29072 -0.57183,0.10195 -1.21342,0.21144 -1.94259,0.21778 -0.72917,0.006 -1.54596,-0.0905 -2.18336,-0.0949 -0.63741,-0.004 -1.09528,0.0838 -1.44299,0.28578 -0.34771,0.20197 -0.585,0.51763 -0.76747,0.83955 -0.18248,0.32192 -0.31011,0.64997 -0.40194,0.95917 -0.0918,0.30919 -0.14788,0.59946 -0.10208,0.89294 0.0458,0.29347 0.19325,0.59004 0.31434,0.93196 0.1211,0.34192 0.21591,0.72917 0.40353,0.9986 0.18761,0.26944 0.46775,0.42117 0.92616,0.58795 0.45842,0.16677 1.09507,0.34866 2.04544,0.41146 0.95038,0.0628 2.21448,0.007 3.25693,-0.0777 1.04246,-0.0843 1.86324,-0.19678 2.5695,-0.37858 0.70626,-0.1818 1.29808,-0.43291 1.80701,-0.73602 0.50893,-0.30311 0.93505,-0.65823 1.32743,-1.0718 0.39237,-0.41358 0.75104,-0.88564 1.04776,-1.36114 0.29671,-0.47549 0.53146,-0.95445 0.64305,-2.04751 0.1116,-1.09306 0.1,-2.8003 0.0941,-3.65406 -0.006,-0.85377 -0.006,-0.85377 -0.0417,-1.03929 z" id="path475"/>
    <path style="fill:url(#linearGradient29330);fill-opacity:1;stroke-width:0.264583" d="m 135.4538,175.02083 c 1.37953,0.0303 3.94308,0.12794 5.59176,0.15563 1.64869,0.0277 2.38249,-0.0145 2.90025,-0.0897 0.51775,-0.0751 0.81954,-0.18306 1.2599,-0.29286 0.44036,-0.10979 1.01924,-0.22146 1.48448,-0.32444 0.46524,-0.10298 0.81686,-0.19726 1.20347,-0.38567 0.38661,-0.18841 0.80833,-0.47095 1.16949,-0.95388 0.36115,-0.48293 0.66185,-1.16638 0.82954,-2.43198 0.1677,-1.26559 0.20234,-3.11339 0.17085,-4.2469 -0.0315,-1.13351 -0.12919,-1.55274 -0.0114,-2.09464 0.1178,-0.54191 0.4512,-1.20627 0.99937,-1.6834 0.54816,-0.47714 1.31084,-0.76687 1.97005,-0.81309 0.6592,-0.0462 1.21471,0.15091 1.60248,0.46587 0.38776,0.31496 0.6079,0.74752 0.77825,1.21482 0.17035,0.46729 0.29098,0.96929 0.38489,2.31909 0.0939,1.3498 0.16115,3.54735 0.0712,5.03124 -0.09,1.4839 -0.33707,2.25417 -0.66206,3.09256 -0.32499,0.8384 -0.72783,1.74491 -1.30781,2.62276 -0.57997,0.87786 -1.33709,1.72713 -2.28898,2.35845 -0.95189,0.63131 -2.09865,1.04471 -3.72169,1.41729 -1.62303,0.37258 -3.72229,0.70429 -6.17468,0.77714 -2.45238,0.0729 -5.25781,-0.11321 -6.75005,-0.25592 -1.49224,-0.1427 -1.67129,-0.24221 -1.8573,-0.39666 -0.18601,-0.15444 -0.37892,-0.36392 -0.58246,-0.63681 -0.20354,-0.27289 -0.41763,-0.60921 -0.55403,-1.00103 -0.1364,-0.39182 -0.19495,-0.83911 -0.16008,-1.22487 0.0349,-0.38577 0.16325,-0.70983 0.34292,-1.01124 0.17968,-0.30142 0.41062,-0.58007 0.67602,-0.83763 0.26541,-0.25755 0.56522,-0.49395 0.81293,-0.63069 0.24771,-0.13673 0.44316,-0.1738 1.82269,-0.14348 z" id="path479"/>
    <path style="fill:url(#linearGradient29338);fill-opacity:1;stroke-width:0.264583" d="m 163.00103,165.4997 c -0.10888,-2.06018 -0.3642,-2.60343 -0.68138,-3.03458 -0.31717,-0.43114 -0.69633,-0.75008 -1.11771,-0.93116 -0.42138,-0.18109 -0.88497,-0.22411 -1.32903,-0.19989 -0.44405,0.0242 -0.86847,0.11572 -1.27352,0.33985 -0.40505,0.22413 -0.79053,0.58084 -1.08375,0.9752 -0.29322,0.39435 -0.4941,0.8262 -0.50052,2.01519 -0.006,1.18899 0.18151,3.13486 0.16716,5.03547 -0.0144,1.90061 -0.23094,3.7559 -0.44388,5.058 -0.21293,1.3021 -0.42216,2.05098 -0.75472,2.8879 -0.33256,0.83691 -0.78842,1.76187 -1.48464,2.45027 -0.69621,0.6884 -1.63292,1.14038 -2.84835,1.48058 -1.21543,0.34019 -2.70963,0.56857 -4.29574,0.73542 -1.58611,0.16686 -3.26405,0.27216 -6.26194,0.30175 -2.99789,0.0296 -7.31555,-0.0166 -9.57728,0.0158 -2.26173,0.0324 -2.46727,0.14347 -2.69002,0.35907 -0.22275,0.2156 -0.46257,0.53566 -0.63303,0.74866 -0.17047,0.213 -0.27162,0.31899 -0.38595,0.58536 -0.11433,0.26636 -0.2418,0.69294 -0.2444,1.14224 -0.003,0.4493 0.11952,0.92117 0.31044,1.30959 0.19093,0.38842 0.45048,0.6934 0.69956,0.92831 0.24909,0.23491 0.48764,0.39981 0.80937,0.5489 0.32173,0.14909 0.72662,0.28247 1.16693,0.39497 0.44032,0.1125 0.91604,0.20415 3.64698,0.19775 2.73093,-0.006 7.71692,-0.11081 10.81507,-0.25045 3.09815,-0.13965 4.30834,-0.31451 5.55772,-0.5497 1.24939,-0.23519 2.53791,-0.53067 3.5047,-0.81292 0.9668,-0.28225 1.61188,-0.55123 2.41014,-1.04419 0.79827,-0.49296 1.74974,-1.20989 2.50095,-1.91097 0.75121,-0.70108 1.30217,-1.38633 1.77114,-2.20328 0.46897,-0.81695 0.85595,-1.76566 1.22225,-3.01407 0.3663,-1.24842 0.71189,-2.79654 0.90341,-5.35919 0.19152,-2.56265 0.22892,-6.13974 0.12004,-8.19992 z" id="path483"/>
    <path style="fill:url(#linearGradient29298);fill-opacity:1;stroke-width:0.264583" d="m 90.932659,177.05029 c -0.0226,-0.36663 -0.0678,-1.10017 -0.19604,-1.90171 -0.1282,-0.80154 -0.33943,-1.67107 -0.62259,-2.36853 -0.28316,-0.69746 -0.63836,-1.22279 -1.15616,-1.61452 -0.5178,-0.39172 -1.19827,-0.64962 -1.84608,-0.80651 -0.64782,-0.15689 -1.2629,-0.21266 -3.34845,-0.22664 -2.08555,-0.014 -5.641387,0.0138 -7.734676,0.0649 -2.09329,0.0511 -2.723905,0.12541 -3.255362,0.26173 -0.531457,0.13633 -0.963615,0.33466 -1.296774,0.61365 -0.333159,0.27899 -0.567138,0.6385 -0.74976,1.01032 -0.182621,0.37181 -0.313868,0.75583 -0.440901,1.2651 -0.127034,0.50927 -0.24986,1.1437 -0.364273,1.83635 -0.114413,0.69265 -0.220412,1.44344 -0.324707,2.52685 -0.104296,1.08341 -0.206895,2.49936 -0.250789,3.60539 -0.04389,1.10603 -0.0291,1.90207 -0.0029,2.42258 0.02625,0.5205 0.06392,0.76541 0.1791,1.15583 0.115176,0.39042 0.307778,0.92631 0.547079,1.38678 0.2393,0.46047 0.525178,0.84552 0.86244,1.10422 0.337262,0.2587 0.725793,0.39124 1.329478,0.50025 0.603686,0.10902 1.422532,0.19459 3.335749,0.26628 1.913217,0.0717 4.920696,0.12951 7.052986,0.0546 2.13229,-0.0749 3.38933,-0.28258 4.316,-0.47425 0.92666,-0.19168 1.52295,-0.36736 2.0253,-0.52238 0.50235,-0.15502 0.91075,-0.28936 1.19179,-0.81448 0.28104,-0.52511 0.43491,-1.44122 0.54241,-3.00288 0.1075,-1.56166 0.16859,-3.76882 0.19914,-4.87254 0.0306,-1.10373 0.0306,-1.10375 0.008,-1.47038 z" id="path491"/>
    <path style="fill:url(#linearGradient29282);fill-opacity:1;stroke-width:0.264583" d="m 67.398229,133.27228 c 0.313282,0.13325 0.939528,0.39963 1.591208,0.59369 0.65168,0.19406 1.32878,0.31588 2.471144,0.3785 1.142364,0.0626 2.749947,0.0661 4.385392,0.0611 1.635446,-0.005 3.298656,-0.0185 4.737136,-0.0737 1.43849,-0.0552 2.65218,-0.15216 3.7579,-0.27492 1.10572,-0.12276 2.10343,-0.27133 2.958,-0.4506 0.85457,-0.17927 1.566,-0.38921 2.0383,-0.70782 0.47229,-0.3186 0.70564,-0.74598 0.87818,-1.33886 0.17254,-0.59288 0.28424,-1.35134 0.3998,-2.74082 0.11555,-1.38948 0.23494,-3.40991 0.27552,-5.37938 0.0406,-1.96946 0.002,-3.88787 -0.14235,-5.50496 -0.14468,-1.61709 -0.39582,-2.93281 -0.62974,-4.00226 -0.23392,-1.06945 -0.45062,-1.89258 -0.86888,-2.54298 -0.41826,-0.65039 -1.03826,-1.12792 -2.02395,-1.50181 -0.98569,-0.37389 -2.33702,-0.64397 -5.00032,-0.79312 -2.66329,-0.14916 -6.638338,-0.17732 -9.176523,-0.075 -2.538185,0.10229 -3.639325,0.33509 -4.307466,0.58053 -0.668141,0.24544 -0.903037,0.50345 -1.177085,1.06032 -0.274048,0.55686 -0.58718,1.41239 -0.844055,2.35628 -0.256875,0.94388 -0.457487,1.97599 -0.61831,2.76542 -0.160823,0.78942 -0.281843,1.33613 -0.38779,2.08883 -0.105947,0.7527 -0.196833,1.7113 -0.289454,2.66703 -0.09262,0.95572 -0.186967,1.90851 -0.199321,2.86272 -0.01235,0.95422 0.05724,1.90976 0.139402,2.85743 0.08216,0.94766 0.176879,1.8874 0.305364,2.75597 0.128484,0.86856 0.290695,1.66589 0.532155,2.35831 0.241459,0.69241 0.562042,1.27987 0.722252,1.57345 0.160209,0.29358 0.160209,0.29349 0.473491,0.42675 z" id="path495"/>
    <path style="fill:url(#linearGradient28372);fill-opacity:1;stroke-width:0.264583" d="m 105.52401,75.555476 c -0.0747,-0.15329 -0.2242,-0.4602 -0.5411,-0.59893 -0.31689,-0.13872 -0.80123,-0.10893 -5.036241,-0.33473 -4.23502,-0.22581 -12.2204,-0.70723 -20.17948,-0.967504 -7.959079,-0.260272 -15.891351,-0.299366 -20.279743,-0.255089 -4.388393,0.04428 -5.232666,0.171952 -5.969349,0.343483 -0.736682,0.17153 -1.365668,0.38692 -1.974457,0.68599 -0.608788,0.29907 -1.197257,0.6818 -1.638486,1.04659 -0.441229,0.3648 -0.735119,0.71159 -0.985966,1.23508 -0.250847,0.523502 -0.458614,1.223542 -0.607775,1.899632 -0.149161,0.6761 -0.239729,1.32816 -0.106406,2.00101 0.133323,0.67284 0.490331,1.36634 0.75693,1.91916 0.266598,0.55282 0.442798,0.96493 0.706781,1.4575 0.263982,0.49257 0.615679,1.06557 0.927477,1.56421 0.311799,0.49864 0.583673,0.92288 1.032832,1.17812 0.44916,0.25523 1.075488,0.3417 1.791663,0.39581 0.716174,0.0541 1.522183,0.0759 4.912004,0.13898 3.389821,0.0631 9.363202,0.16756 14.919842,0.17188 5.556643,0.004 10.696233,-0.0915 14.828073,-0.20174 4.13185,-0.11028 7.25573,-0.23502 9.46377,-0.33623 2.20805,-0.1012 3.500151,-0.17884 4.422691,-0.29207 0.92255,-0.11322 1.47558,-0.26198 1.85625,-0.36148 0.38068,-0.0995 0.58896,-0.1497 0.82623,-0.39811 0.23727,-0.24841 0.50373,-0.69511 0.72985,-1.19399 0.22611,-0.49887 0.41187,-1.04997 0.54771,-1.61232 0.13585,-0.56235 0.22176,-1.13597 0.25356,-1.74108 0.0318,-0.6051 0.009,-1.24169 -0.0127,-1.84993 -0.0222,-0.60824 -0.0441,-1.18808 -0.13894,-1.8068 -0.0948,-0.618712 -0.2625,-1.276302 -0.3464,-1.605262 -0.0839,-0.32896 -0.0839,-0.32888 -0.15858,-0.48218 z" id="path499"/>
    <path style="fill:url(#linearGradient24897);fill-opacity:1;stroke-width:0.264583" d="m 103.62729,72.774924 c 0.15814,-0.01945 0.4742,-0.05834 0.73778,-0.161627 0.26358,-0.10329 0.47486,-0.270983 0.68632,-0.572979 0.21147,-0.301995 0.4232,-0.738408 0.61418,-1.296469 0.19097,-0.558062 0.36117,-1.237811 0.46683,-2.017178 0.10566,-0.779367 0.14674,-1.658369 0.0993,-2.3294 -0.0474,-0.671032 -0.18339,-1.134119 -0.30654,-1.757435 -0.12314,-0.623316 -0.23338,-1.4068 -0.46639,-2.003393 C 105.22576,62.03985 104.8698,61.6302 103.75536,61.280318 102.64095,60.930436 100.76807,60.640577 93.588829,59.36356 86.409589,58.086542 73.924531,55.822453 66.73231,54.625926 59.54009,53.4294 57.641057,53.300523 55.919763,53.236691 c -1.721294,-0.06383 -3.264727,-0.0626 -4.470927,0.187825 -1.2062,0.250424 -2.074917,0.750067 -2.887969,1.321426 -0.813052,0.571358 -1.570329,1.214367 -2.169108,1.8709 -0.59878,0.656533 -1.038963,1.326465 -1.489725,2.031237 -0.450762,0.704772 -0.912074,1.444333 -1.219448,2.088883 -0.307375,0.644549 -0.460795,1.193949 -0.519574,1.93436 -0.05878,0.740412 -0.02297,1.671689 0.07739,2.422436 0.100367,0.750746 0.26521,1.320884 0.61789,2.010759 0.352679,0.689876 0.89306,1.499461 1.708256,2.039953 0.815197,0.540492 1.90505,0.812092 3.177661,1.08749 1.272612,0.275398 2.72791,0.554596 4.438914,0.794196 1.711005,0.2396 3.677627,0.439618 5.848071,0.567031 2.170445,0.127414 4.544602,0.182241 7.957143,0.318691 3.41254,0.13645 7.863236,0.354506 12.613772,0.493493 4.75053,0.138986 9.80061,0.198907 13.82848,0.250561 4.02788,0.05165 7.033321,0.09504 8.535941,0.116727 1.50262,0.02169 1.50262,0.02172 1.66076,0.0023 z" id="path503"/>
    <path style="fill:url(#linearGradient28380);fill-opacity:1;stroke-width:0.264583" d="m 127.67944,72.034918 c -0.0466,-0.736856 -0.13974,-2.21085 -0.30089,-3.393147 -0.16114,-1.182296 -0.39031,-2.072896 -0.66625,-2.914601 -0.27595,-0.841706 -0.59869,-1.634478 -1.19263,-2.325162 -0.59395,-0.690684 -1.45923,-1.279126 -2.35135,-1.783187 -0.89213,-0.504061 -1.81106,-0.923654 -2.79827,-1.249459 -0.98721,-0.325805 -2.04264,-0.557729 -3.13157,-0.748822 -1.08894,-0.191094 -2.21132,-0.341319 -3.47688,-0.377329 -1.26557,-0.03601 -2.67421,0.04225 -3.69769,0.256539 -1.02348,0.21429 -1.66161,0.564635 -2.07109,0.926332 -0.40949,0.361696 -0.59015,0.734564 -0.69195,1.228031 -0.1018,0.493467 -0.12476,1.107353 -0.13071,2.203928 -0.006,1.096574 0.005,2.67574 0.0606,4.373826 0.0554,1.698086 0.15527,3.514977 0.25686,5.067462 0.10158,1.552487 0.20492,2.840487 0.33096,3.889539 0.12603,1.04905 0.27474,1.85908 0.38041,2.77157 0.10567,0.91249 0.16834,1.92744 0.26326,2.8646 0.0949,0.93716 0.22207,1.79648 0.33647,2.528 0.1144,0.73152 0.21605,1.3352 0.29798,1.6842 0.0819,0.349 0.14402,0.44338 0.255,0.47385 0.11097,0.0305 0.27083,-0.003 2.99356,0.006 2.72273,0.008 8.00806,0.0576 10.70709,0.0508 2.69904,-0.007 2.81184,-0.0699 2.93946,-0.47292 0.12762,-0.40301 0.27018,-1.1462 0.48339,-2.22888 0.21321,-1.08269 0.49707,-2.50481 0.71401,-3.99236 0.21695,-1.48755 0.36695,-3.04049 0.44526,-4.401612 0.0783,-1.36112 0.0849,-2.53037 0.0882,-3.115141 0.003,-0.58477 0.003,-0.58479 -0.0432,-1.321647 z" id="path507"/>
    <path style="fill:url(#linearGradient28388);fill-opacity:1;stroke-width:0.264583" d="m 131.74305,87.375228 c 2.32506,0.0109 6.97493,0.0327 9.34395,-0.0174 2.36902,-0.0501 2.45751,-0.17222 2.53336,-0.30062 0.0759,-0.12841 0.13913,-0.26321 0.3265,-1.08034 0.18736,-0.81713 0.49878,-2.3166 0.71305,-3.75586 0.21428,-1.43926 0.33136,-2.81825 0.4114,-4.1966 0.08,-1.378342 0.12302,-2.755952 0.0997,-4.044482 -0.0233,-1.288535 -0.11292,-2.487935 -0.25579,-3.568059 -0.14287,-1.080124 -0.33903,-2.040932 -0.58743,-2.739788 -0.24839,-0.698856 -0.54914,-1.135721 -1.25593,-1.731592 -0.70679,-0.595871 -1.81965,-1.350612 -3.083,-1.898097 -1.26334,-0.547485 -2.67709,-0.887551 -4.02345,-1.101485 -1.34635,-0.213934 -2.62521,-0.301672 -3.77184,-0.304618 -1.14662,-0.0029 -2.16092,0.07894 -2.84655,0.388968 -0.68562,0.310031 -1.04225,0.848099 -1.22056,1.513778 -0.17832,0.665678 -0.17836,1.458722 -0.14592,2.71077 0.0324,1.252047 0.0974,2.963005 0.17668,4.939594 0.0793,1.976589 0.17304,4.218689 0.32401,6.237711 0.15098,2.01902 0.35917,3.81483 0.51973,5.09941 0.16055,1.28458 0.27345,2.05786 0.3391,2.58066 0.0656,0.5228 0.0841,0.79509 0.0892,0.96289 0.005,0.1678 -0.003,0.23116 -0.007,0.26272 -0.004,0.0316 -0.004,0.0316 2.32098,0.0425 z" id="path511"/>
    <path style="fill:url(#linearGradient28396);fill-opacity:1;stroke-width:0.264583" d="m 149.15195,87.575528 c 1.9245,0.009 5.77323,0.0263 7.82484,0.018 2.05161,-0.008 2.30612,-0.0422 2.45236,-0.1713 0.14623,-0.12911 0.18444,-0.3536 0.27141,-0.95727 0.087,-0.60366 0.22267,-1.58646 0.3443,-2.52182 0.12164,-0.93536 0.22919,-1.82322 0.32539,-2.92634 0.0962,-1.10313 0.18101,-2.42146 0.24249,-3.65885 0.0615,-1.237402 0.0996,-2.393792 0.12438,-3.192782 0.0248,-0.798995 0.0361,-1.240551 -0.0655,-1.901256 -0.10166,-0.660705 -0.31644,-1.540575 -0.61413,-2.342551 -0.2977,-0.801975 -0.67838,-1.526019 -1.36566,-2.19877 -0.68728,-0.672751 -1.68125,-1.29405 -2.81957,-1.77998 -1.13831,-0.485929 -2.42089,-0.836355 -3.48815,-1.041042 -1.06725,-0.204686 -1.91908,-0.263556 -2.71957,-0.259811 -0.80049,0.0037 -1.54955,0.07014 -2.15477,0.25134 -0.60522,0.181198 -1.06641,0.477206 -1.37577,0.78605 -0.30936,0.308843 -0.46674,0.630347 -0.53481,1.634209 -0.0681,1.003862 -0.0469,2.689848 0.005,4.29849 0.052,1.608642 0.13488,3.139831 0.27287,4.954331 0.13798,1.814502 0.33109,3.912202 0.46826,5.484282 0.13716,1.57207 0.21837,2.61844 0.27166,3.34578 0.0533,0.72733 0.0786,1.13561 0.17584,1.44423 0.0972,0.30863 0.26599,0.5176 0.35027,0.62193 0.0843,0.10434 0.0842,0.10437 2.00874,0.11312 z" id="path515"/>
    <path id="path519" style="fill:url(#linearGradient29290);fill-opacity:1;stroke-width:0.264583" d="m 128.15008,109.9717 c -0.80812,-0.001 -0.80819,-9.6e-4 -1.63969,0.11679 -0.8315,0.11775 -2.49475,0.35348 -3.82044,0.68782 -1.32569,0.33433 -2.31339,0.76749 -3.21685,1.31103 -0.90346,0.54354 -1.72258,1.19752 -2.47376,1.96215 -0.75119,0.76463 -1.43443,1.63982 -1.97404,2.57555 -0.53959,0.93574 -0.93549,1.93163 -1.24746,3.25304 -0.31196,1.3214 -0.53993,2.96834 -0.58033,4.65294 -0.0404,1.6846 0.10722,3.40672 0.32039,4.84002 0.21317,1.43331 0.49166,2.57764 0.85111,3.60133 0.35945,1.02369 0.79961,1.92698 1.67122,2.95176 0.87161,1.02476 2.17433,2.17081 3.5171,3.07268 1.34276,0.90187 2.72551,1.55945 4.30309,1.98592 1.57759,0.42648 3.35016,0.62197 5.04776,0.60617 1.6976,-0.0158 3.32027,-0.2429 5.06481,-0.70487 1.74452,-0.46196 3.6107,-1.15883 5.08444,-1.99574 1.47374,-0.83693 2.55485,-1.81378 3.44113,-2.87115 0.88627,-1.05737 1.578,-2.19538 2.05983,-3.42718 0.48184,-1.23179 0.75367,-2.55754 0.88986,-3.79356 0.13616,-1.23602 0.13662,-2.38238 0.11162,-3.54036 -0.025,-1.15799 -0.075,-2.32775 -0.23564,-3.42201 -0.1606,-1.09426 -0.43185,-2.11268 -0.91571,-3.27215 -0.48385,-1.15946 -1.18038,-2.46006 -2.1239,-3.63337 -0.94352,-1.17331 -2.13379,-2.2195 -3.25613,-2.95641 -1.12233,-0.73691 -2.17687,-1.16396 -3.30522,-1.44487 -1.12836,-0.28091 -2.33064,-0.4154 -3.73983,-0.4837 -1.40919,-0.0678 -3.02522,-0.0708 -3.83336,-0.0718 z m 2.20917,10.50324 c 0.50779,-3.1e-4 0.98899,0.0166 1.40612,0.0589 0.83427,0.0846 1.412,0.26936 1.8557,0.55862 0.44369,0.28927 0.75385,0.68316 0.96583,1.46761 0.21198,0.78445 0.32645,1.95909 0.35915,3.02101 0.0327,1.06191 -0.0166,2.01104 -0.18448,2.70733 -0.16791,0.69628 -0.45456,1.13978 -0.5979,1.36167 v 5.2e-4 c -0.14334,0.22188 -0.14337,0.22153 -0.55552,0.36277 -0.41216,0.14123 -1.23664,0.42396 -2.03967,0.62166 -0.80303,0.19771 -1.58485,0.31071 -2.33577,0.31471 -0.75091,0.004 -1.47107,-0.10066 -2.07636,-0.22221 -0.60529,-0.12154 -1.09564,-0.26007 -1.4888,-0.44803 -0.39316,-0.18796 -0.68877,-0.42531 -0.92036,-0.72037 -0.2316,-0.29506 -0.39884,-0.64797 -0.55035,-1.23352 -0.15151,-0.58554 -0.28746,-1.40369 -0.32866,-2.38486 -0.0412,-0.98117 0.0121,-2.12482 0.11472,-2.88458 0.10261,-0.75977 0.25472,-1.13542 0.55604,-1.45211 0.30131,-0.31668 0.75164,-0.57445 1.47846,-0.75189 0.72681,-0.17745 1.7298,-0.27495 2.77657,-0.33125 0.52339,-0.0282 1.05749,-0.0457 1.56528,-0.046 z"/>
    <path id="path24521" style="fill:url(#linearGradient29346);fill-opacity:1;stroke-width:0.264583" d="m 81.698139,135.50555 c -1.14865,0.007 -2.38475,0.06 -3.57756,0.16174 -2.385615,0.20347 -4.598273,0.60133 -6.215124,0.98702 -1.616853,0.38569 -2.63749,0.75924 -3.381706,1.13844 -0.744216,0.3792 -1.212211,0.76359 -1.872237,1.50326 -0.660026,0.73966 -1.511893,1.83456 -2.599841,3.46542 -1.087947,1.63086 -2.411685,3.79768 -3.549138,5.9707 -1.137452,2.17301 -2.08879,4.35221 -2.688208,6.04304 -0.599417,1.69083 -0.847049,2.89342 -0.960148,4.08864 -0.113098,1.19521 -0.09154,2.38301 0.09095,3.4277 0.182485,1.04468 0.52596,1.94616 1.223698,2.79724 0.697736,0.85108 1.749113,1.65177 2.274796,2.05207 0.525683,0.40031 0.526105,0.40022 0.8785,0.5302 0.352394,0.12998 1.056478,0.38977 1.852083,0.61289 0.795605,0.22312 1.682638,0.40954 2.6448,0.51624 0.962162,0.1067 1.999854,0.13398 3.041158,0.14987 1.041305,0.0159 2.086004,0.0207 3.103169,-0.0367 1.017167,-0.0574 2.006829,-0.177 3.339848,-0.40308 1.33302,-0.22608 3.009573,-0.55875 4.747,-0.99942 1.73742,-0.44067 3.53538,-0.98953 4.98161,-1.46245 1.44622,-0.47291 2.54072,-0.86999 3.28662,-1.26038 0.74589,-0.39039 1.14335,-0.77387 1.46089,-1.42731 0.31754,-0.65345 0.55509,-1.57696 0.74414,-2.64531 0.18904,-1.06835 0.32927,-2.28179 0.43822,-3.77548 0.10894,-1.49368 0.18671,-3.26747 0.19378,-4.90565 0.007,-1.63817 -0.0563,-3.14062 -0.17311,-4.5806 -0.11683,-1.43997 -0.28749,-2.81765 -0.48524,-4.16408 -0.19776,-1.34642 -0.42271,-2.66136 -0.83148,-3.79099 -0.40877,-1.12962 -1.00141,-2.0735 -1.70584,-2.71818 -0.70443,-0.64467 -1.52077,-0.99016 -3.20807,-1.15807 -0.84365,-0.084 -1.90491,-0.12361 -3.05356,-0.11678 z m -10.975558,15.06213 c 0.104543,-2.4e-4 0.211868,6.8e-4 0.322461,0.003 0.110594,0.002 0.22449,0.006 0.340548,0.0109 0.116058,0.005 0.234112,0.011 0.353467,0.0181 0.119354,0.007 0.2397,0.0157 0.360184,0.0248 0.120485,0.009 0.241254,0.0191 0.360702,0.03 0.119448,0.0108 0.237739,0.0223 0.353984,0.0346 0.116244,0.0123 0.23019,0.0252 0.341064,0.0387 0.110874,0.0135 0.218608,0.0274 0.321944,0.0419 0.103336,0.0145 0.202475,0.0298 0.296106,0.045 0.09363,0.0152 0.181979,0.0304 0.2651,0.046 0.08312,0.0156 0.160924,0.0314 0.234094,0.047 0.07317,0.0156 0.141377,0.0312 0.205156,0.0465 0.06378,0.0153 0.123336,0.0302 0.178284,0.045 0.05495,0.0147 0.105253,0.0292 0.151928,0.0429 0.04667,0.0137 0.08971,0.0269 0.128675,0.0393 0.07792,0.0248 0.140771,0.0466 0.191202,0.0641 0.05043,0.0174 0.08836,0.0305 0.11989,0.0424 0.01576,0.006 0.03,0.0114 0.04341,0.0171 0.0134,0.006 0.02562,0.0118 0.03824,0.0181 0.02525,0.0125 0.05058,0.0266 0.08216,0.046 0.03159,0.0194 0.06985,0.044 0.120406,0.0765 0.02528,0.0163 0.05356,0.0342 0.08475,0.0548 0.03119,0.0205 0.06499,0.0434 0.101286,0.0687 0.0363,0.0253 0.07515,0.0532 0.115755,0.0837 0.04061,0.0305 0.083,0.0636 0.127125,0.0997 0.04412,0.0362 0.09011,0.075 0.136942,0.11731 0.02342,0.0211 0.04685,0.0434 0.0708,0.0661 0.02395,0.0228 0.04797,0.0464 0.07235,0.0708 0.02437,0.0244 0.04919,0.0493 0.0739,0.0754 0.0247,0.0262 0.04948,0.0532 0.07441,0.0811 0.02493,0.028 0.04987,0.057 0.07493,0.0868 0.02506,0.0298 0.05036,0.0608 0.07545,0.0925 0.02509,0.0317 0.0499,0.0641 0.07493,0.0977 0.02503,0.0336 0.05006,0.068 0.07493,0.10335 0.02487,0.0354 0.04978,0.072 0.07441,0.10904 0.02463,0.0371 0.04908,0.0745 0.07338,0.11317 0.0243,0.0386 0.04846,0.0782 0.07235,0.11834 0.02388,0.0401 0.04742,0.0809 0.0708,0.12247 0.02338,0.0415 0.04647,0.0838 0.06925,0.12661 0.02278,0.0428 0.0456,0.0862 0.0677,0.13022 0.0221,0.044 0.04379,0.0887 0.06511,0.13385 0.02132,0.0451 0.04207,0.0908 0.06253,0.13694 0.02046,0.0461 0.04043,0.093 0.05994,0.14004 0.01951,0.047 0.03837,0.0943 0.05684,0.14211 0.01847,0.0478 0.0364,0.0961 0.05374,0.1447 0.01735,0.0486 0.03451,0.0976 0.05064,0.14676 0.01613,0.0492 0.03116,0.0986 0.04599,0.14831 0.01483,0.0497 0.02946,0.0992 0.04289,0.14934 0.01343,0.0501 0.02569,0.10044 0.03772,0.1509 0.01203,0.0505 0.02342,0.10111 0.03411,0.15193 0.01069,0.0508 0.02108,0.10179 0.03049,0.15296 0.0094,0.0512 0.01816,0.10249 0.02636,0.15399 0.0082,0.0515 0.0157,0.10319 0.02274,0.15503 0.007,0.0518 0.01369,0.1039 0.01964,0.15607 0.0059,0.0522 0.0111,0.10461 0.01602,0.15709 0.0049,0.0525 0.0095,0.10534 0.01344,0.15813 0.004,0.0528 0.0073,0.10555 0.01034,0.15865 0.0031,0.0531 0.0055,0.10629 0.0078,0.15968 0.0044,0.10678 0.0073,0.21403 0.0088,0.32194 0.0014,0.10792 0.0016,0.21658 5.17e-4,0.32557 -0.001,0.10898 -0.0032,0.21866 -0.0062,0.32866 -0.003,0.11 -0.0069,0.22061 -0.01189,0.33124 -0.005,0.11064 -0.01127,0.22119 -0.0186,0.33177 -0.0073,0.11057 -0.01571,0.22091 -0.02584,0.33073 -0.0051,0.0549 -0.01069,0.10974 -0.01654,0.16433 -0.0058,0.0546 -0.01193,0.10911 -0.0186,0.16329 -0.0067,0.0542 -0.01362,0.10806 -0.02119,0.16175 -0.0076,0.0537 -0.01579,0.10709 -0.02429,0.1602 -0.0085,0.0531 -0.01738,0.10568 -0.02687,0.15813 -0.0095,0.0524 -0.01944,0.10489 -0.02997,0.15658 -0.01054,0.0517 -0.02195,0.10263 -0.03359,0.15348 -0.01164,0.0508 -0.02339,0.10149 -0.03617,0.15141 -0.01279,0.0499 -0.02632,0.0994 -0.04031,0.14831 -0.01399,0.0489 -0.02867,0.0974 -0.04393,0.14521 -0.01525,0.0478 -0.031,0.0949 -0.04754,0.14159 -0.01654,0.0467 -0.03383,0.0924 -0.05168,0.13798 -0.01785,0.0456 -0.03664,0.0909 -0.05581,0.13539 -0.01917,0.0445 -0.03892,0.0884 -0.05943,0.13178 -0.02051,0.0434 -0.0417,0.0863 -0.06356,0.12867 -0.02186,0.0424 -0.04447,0.0842 -0.0677,0.12558 -0.02323,0.0413 -0.0467,0.0821 -0.07131,0.12247 -0.02461,0.0403 -0.04995,0.08 -0.07596,0.11937 -0.02601,0.0394 -0.05319,0.0784 -0.08061,0.11679 -0.02743,0.0384 -0.05538,0.0762 -0.08423,0.11369 -0.02886,0.0375 -0.05858,0.0746 -0.08888,0.1111 -0.0303,0.0365 -0.06126,0.0724 -0.09302,0.10801 -0.03176,0.0356 -0.06392,0.0712 -0.09715,0.10593 -0.03324,0.0348 -0.06759,0.0689 -0.102319,0.10284 -0.03472,0.0339 -0.07022,0.0672 -0.106454,0.10025 -0.03623,0.0331 -0.07284,0.0659 -0.110587,0.0982 -0.03775,0.0323 -0.07649,0.0641 -0.115755,0.0956 -0.03927,0.0315 -0.07913,0.0629 -0.11989,0.0935 -0.04076,0.0306 -0.08232,0.0607 -0.12454,0.0904 -0.04222,0.0298 -0.08502,0.059 -0.128674,0.0879 -0.04366,0.0289 -0.08825,0.0573 -0.133325,0.0853 -0.04507,0.028 -0.091,0.0557 -0.13746,0.0827 -0.04646,0.027 -0.09326,0.0536 -0.141076,0.0796 -0.04782,0.026 -0.09658,0.0515 -0.145728,0.0765 -0.04915,0.025 -0.09889,0.0494 -0.149345,0.0734 -0.05046,0.024 -0.101738,0.0473 -0.153479,0.0703 -0.05174,0.0229 -0.1041,0.0453 -0.157096,0.0672 -0.053,0.0218 -0.106487,0.0434 -0.160714,0.0641 -0.05423,0.0207 -0.1089,0.0409 -0.164331,0.0605 -0.05543,0.0196 -0.111339,0.0384 -0.167948,0.0568 -0.05661,0.0184 -0.113805,0.036 -0.171566,0.0532 -0.05776,0.0172 -0.116296,0.0342 -0.175183,0.0501 -0.05889,0.016 -0.118352,0.0312 -0.178284,0.046 -0.05993,0.0147 -0.120546,0.0288 -0.181384,0.0424 -0.06084,0.0135 -0.121847,0.0264 -0.183451,0.0388 -0.06161,0.0124 -0.123802,0.024 -0.186036,0.0351 -0.06223,0.0112 -0.124346,0.022 -0.187068,0.032 -0.06272,0.0101 -0.126062,0.0195 -0.189136,0.0284 -0.06307,0.009 -0.12585,0.0175 -0.189136,0.0253 -0.06329,0.008 -0.12681,0.0149 -0.190169,0.0217 -0.06336,0.007 -0.126875,0.0129 -0.190169,0.0186 -0.06329,0.006 -0.126563,0.0113 -0.189653,0.016 -0.06309,0.005 -0.125872,0.009 -0.188619,0.0124 -0.06275,0.004 -0.12532,0.007 -0.187585,0.009 -0.06227,0.003 -0.12439,0.005 -0.186035,0.007 -0.06165,0.002 -0.122565,0.003 -0.183452,0.004 -0.06089,8e-4 -0.121395,0.001 -0.181384,0.001 -0.05999,-1.2e-4 -0.119848,-0.001 -0.1788,-0.002 -0.05895,-0.001 -0.117344,-0.002 -0.175184,-0.004 -0.05784,-0.002 -0.114853,-0.004 -0.171565,-0.007 -0.05671,-0.003 -0.112894,-0.006 -0.168465,-0.009 -0.05557,-0.004 -0.110433,-0.008 -0.164848,-0.0119 -0.05442,-0.004 -0.108502,-0.009 -0.161748,-0.0139 -0.05324,-0.005 -0.106068,-0.0108 -0.158129,-0.0165 -0.05206,-0.006 -0.103133,-0.0116 -0.153996,-0.0181 -0.05086,-0.006 -0.101244,-0.0136 -0.150895,-0.0207 -0.04965,-0.007 -0.09885,-0.0145 -0.147278,-0.0222 -0.04842,-0.008 -0.09596,-0.0159 -0.143144,-0.0243 -0.04718,-0.008 -0.09412,-0.0169 -0.140043,-0.0258 -0.04593,-0.009 -0.09125,-0.0179 -0.135909,-0.0274 -0.08932,-0.0189 -0.175779,-0.039 -0.259933,-0.06 -0.08415,-0.0209 -0.165552,-0.0429 -0.244429,-0.0656 -0.07888,-0.0227 -0.155107,-0.0464 -0.228927,-0.0708 -0.03691,-0.0122 -0.07329,-0.0246 -0.109037,-0.0372 -0.03575,-0.0126 -0.07128,-0.0252 -0.105937,-0.0382 -0.03466,-0.0131 -0.06868,-0.0268 -0.102319,-0.0403 -0.03364,-0.0135 -0.06653,-0.0273 -0.09922,-0.0413 -0.06538,-0.028 -0.129211,-0.0569 -0.191202,-0.0868 -0.06199,-0.0299 -0.122222,-0.0606 -0.181385,-0.0925 -0.05916,-0.0319 -0.117258,-0.0648 -0.174149,-0.0987 -0.05689,-0.0339 -0.112773,-0.0689 -0.167949,-0.1049 -0.05517,-0.036 -0.10928,-0.0729 -0.163297,-0.1111 -0.05402,-0.0382 -0.107676,-0.0778 -0.160714,-0.11834 -0.05304,-0.0406 -0.105749,-0.0825 -0.157613,-0.12558 -0.05186,-0.0431 -0.102983,-0.0875 -0.153479,-0.13332 -0.02525,-0.0229 -0.05058,-0.0461 -0.07545,-0.0698 -0.02487,-0.0236 -0.04943,-0.0474 -0.0739,-0.0718 -0.02447,-0.0244 -0.04882,-0.0492 -0.07286,-0.0744 -0.02404,-0.0252 -0.04772,-0.051 -0.07131,-0.077 -0.02359,-0.026 -0.04665,-0.0522 -0.06976,-0.0791 -0.02311,-0.0268 -0.04612,-0.054 -0.06873,-0.0816 -0.02261,-0.0277 -0.04509,-0.0557 -0.06718,-0.0842 -0.02209,-0.0286 -0.04409,-0.0579 -0.06563,-0.0873 -0.02154,-0.0295 -0.0426,-0.059 -0.06356,-0.0894 -0.02096,-0.0304 -0.04164,-0.0611 -0.06201,-0.0925 -0.02037,-0.0313 -0.04019,-0.0633 -0.05994,-0.0956 -0.01976,-0.0323 -0.03926,-0.065 -0.05839,-0.0982 -0.01914,-0.0332 -0.03833,-0.0672 -0.05684,-0.10129 -0.01852,-0.0341 -0.03637,-0.0685 -0.05426,-0.10335 -0.01789,-0.0349 -0.03545,-0.0698 -0.05271,-0.10542 -0.01726,-0.0356 -0.03454,-0.0717 -0.05116,-0.10801 -0.01662,-0.0363 -0.0326,-0.0731 -0.04858,-0.11007 -0.01598,-0.037 -0.03169,-0.074 -0.04703,-0.11162 -0.01533,-0.0376 -0.03027,-0.0755 -0.04496,-0.11369 -0.01468,-0.0381 -0.02938,-0.0766 -0.04341,-0.11524 -0.02806,-0.0773 -0.05469,-0.15557 -0.0801,-0.23461 -0.02541,-0.079 -0.04962,-0.15887 -0.07235,-0.23926 -0.02272,-0.0804 -0.04408,-0.16153 -0.06408,-0.24288 -0.02,-0.0814 -0.03844,-0.16281 -0.05581,-0.24494 -0.01737,-0.0821 -0.03362,-0.16459 -0.04858,-0.24753 -0.01496,-0.083 -0.02857,-0.16633 -0.04134,-0.25012 -0.01277,-0.0838 -0.02434,-0.16802 -0.03514,-0.2527 -0.0108,-0.0847 -0.02092,-0.1702 -0.02997,-0.25579 -0.0091,-0.0856 -0.01727,-0.17133 -0.02481,-0.25787 -0.0075,-0.0865 -0.01444,-0.17344 -0.02067,-0.26097 -0.0062,-0.0875 -0.0119,-0.17603 -0.01705,-0.26458 -0.0052,-0.0885 -0.0098,-0.17739 -0.01395,-0.26665 -0.0041,-0.0893 -0.0078,-0.17889 -0.01085,-0.2682 -0.0031,-0.0893 -0.0053,-0.17847 -0.0072,-0.26717 -0.002,-0.0887 -0.0034,-0.17664 -0.0041,-0.26406 -7.57e-4,-0.0874 -0.001,-0.17393 -5.17e-4,-0.25942 5.02e-4,-0.0855 0.0018,-0.17031 0.0036,-0.25321 0.0018,-0.0829 0.004,-0.16426 0.0072,-0.24392 0.0032,-0.0796 0.0072,-0.15731 0.01188,-0.23306 0.0047,-0.0757 0.01029,-0.14943 0.01654,-0.22117 0.0062,-0.0718 0.01316,-0.14158 0.02119,-0.20981 0.008,-0.0682 0.01686,-0.13479 0.02687,-0.19999 0.01001,-0.0652 0.02139,-0.12907 0.03359,-0.19172 0.0122,-0.0626 0.0252,-0.1239 0.03979,-0.18448 0.01459,-0.0606 0.03037,-0.12032 0.04754,-0.17932 0.01717,-0.059 0.03585,-0.11729 0.05581,-0.17518 0.01996,-0.0579 0.04113,-0.11533 0.06408,-0.1726 0.02295,-0.0573 0.04759,-0.11445 0.07338,-0.17105 0.02579,-0.0566 0.05299,-0.11262 0.08113,-0.16795 0.02814,-0.0553 0.05734,-0.10983 0.08733,-0.1633 0.02999,-0.0535 0.06063,-0.10608 0.09198,-0.15709 0.03135,-0.051 0.06338,-0.10086 0.0956,-0.14883 0.03222,-0.048 0.06456,-0.0942 0.09715,-0.13849 0.03259,-0.0443 0.0652,-0.0865 0.09767,-0.12661 0.03247,-0.0401 0.06478,-0.0779 0.09663,-0.11317 0.03185,-0.0353 0.06352,-0.0681 0.09508,-0.0987 0.01578,-0.0153 0.03161,-0.0301 0.04754,-0.0445 0.01593,-0.0143 0.03184,-0.0284 0.04806,-0.0419 0.01622,-0.0134 0.03295,-0.0261 0.04961,-0.0388 0.01666,-0.0127 0.0334,-0.0252 0.05064,-0.0372 0.01724,-0.012 0.03474,-0.0236 0.05271,-0.0351 0.01797,-0.0115 0.03645,-0.023 0.05529,-0.0341 0.03769,-0.0222 0.07732,-0.0439 0.119373,-0.0651 0.04205,-0.0212 0.08626,-0.0418 0.133842,-0.063 0.04758,-0.0212 0.09817,-0.043 0.152445,-0.0651 0.05427,-0.0221 0.112541,-0.0448 0.174667,-0.0687 0.06213,-0.0239 0.128495,-0.0486 0.198437,-0.0744 0.06994,-0.0258 0.1431,-0.053 0.219625,-0.0801 0.07653,-0.0271 0.156353,-0.0545 0.238228,-0.0822 0.08188,-0.0277 0.166188,-0.0556 0.252181,-0.0832 0.08599,-0.0276 0.173639,-0.0548 0.262517,-0.0817 0.08888,-0.0269 0.178705,-0.0531 0.269234,-0.0785 0.09053,-0.0254 0.181904,-0.0501 0.272852,-0.0734 0.09095,-0.0233 0.181685,-0.0456 0.271818,-0.0661 0.09013,-0.0205 0.17952,-0.0394 0.268717,-0.0568 0.0892,-0.0174 0.177908,-0.0331 0.267167,-0.0475 0.08926,-0.0144 0.178915,-0.0278 0.269234,-0.0393 0.09032,-0.0115 0.181508,-0.0214 0.273885,-0.03 0.09238,-0.009 0.186203,-0.0155 0.281637,-0.0212 0.09543,-0.006 0.192482,-0.01 0.291972,-0.0129 0.09949,-0.003 0.201382,-0.004 0.305924,-0.005 z"/>
    <path id="path639" style="fill:url(#linearGradient33977);fill-opacity:1;stroke-width:0.264583" d="m 70.758238,149.97185 c -0.228708,0.001 -0.450923,0.008 -0.661458,0.0207 -1.122856,0.0676 -1.916143,0.30563 -2.64635,0.58136 -0.730207,0.27574 -1.397207,0.58904 -1.862419,1.06763 -0.465213,0.47858 -0.728629,1.12185 -0.914156,1.59525 -0.185527,0.47341 -0.293094,0.77724 -0.374137,1.40405 -0.08104,0.6268 -0.135789,1.57656 0.01447,2.69906 0.150262,1.12249 0.5055,2.41736 0.820622,3.18999 0.315121,0.77264 0.590285,1.02317 1.083138,1.36581 0.492851,0.34265 1.203134,0.77767 1.908927,1.08107 0.705793,0.3034 1.406611,0.4753 2.175578,0.51676 0.768966,0.0415 1.606421,-0.0475 2.298568,-0.15864 0.692146,-0.11109 1.239069,-0.2442 1.768884,-0.40463 0.529815,-0.16042 1.042641,-0.34825 1.610754,-0.75344 0.568114,-0.40519 1.191583,-1.02756 1.617473,-1.71049 0.425888,-0.68293 0.65421,-1.42637 0.746207,-2.37815 0.092,-0.95179 0.04791,-2.11247 -0.127124,-3.13625 -0.175036,-1.02377 -0.481341,-1.91057 -0.882633,-2.58743 -0.401294,-0.67687 -0.897949,-1.14369 -1.449007,-1.48105 -0.551059,-0.33736 -1.15667,-0.54539 -2.185397,-0.70073 -0.835841,-0.12623 -1.950871,-0.21729 -2.941939,-0.21084 z m -0.03566,0.59583 c 0.104543,-2.4e-4 0.211868,6.8e-4 0.322461,0.003 0.884749,0.0193 1.978947,0.12253 2.727999,0.24391 0.749052,0.12137 1.152715,0.26093 1.354439,0.33073 0.201725,0.0698 0.201893,0.07 0.40411,0.19999 0.202217,0.13002 0.606252,0.38984 1.007691,0.8971 0.401439,0.50726 0.800483,1.26134 1.015441,2.06292 0.214959,0.80158 0.245894,1.65059 0.221692,2.5306 -0.0242,0.88 -0.103776,1.79152 -0.347782,2.55643 -0.244006,0.76491 -0.652243,1.3831 -1.256254,1.89963 -0.604011,0.51652 -1.40391,0.93137 -2.34611,1.187 -0.9422,0.25564 -2.02712,0.35198 -2.970361,0.3359 -0.943242,-0.0161 -1.744553,-0.14488 -2.375566,-0.32659 -0.631013,-0.18172 -1.091282,-0.41612 -1.523421,-0.72192 -0.432139,-0.30581 -0.836306,-0.68275 -1.162203,-1.18443 -0.325898,-0.50168 -0.573784,-1.12841 -0.733806,-1.77922 -0.160021,-0.6508 -0.232166,-1.32609 -0.273368,-2.0345 -0.0412,-0.7084 -0.05124,-1.44973 -0.01395,-2.05569 0.03729,-0.60596 0.121813,-1.07608 0.305408,-1.53427 0.183595,-0.4582 0.466054,-0.90423 0.720886,-1.18649 0.254833,-0.28227 0.482265,-0.40093 0.979269,-0.59221 0.497004,-0.19128 1.263832,-0.45535 1.984892,-0.6196 0.630927,-0.14372 1.226739,-0.21077 1.958536,-0.21239 z"/>
  </g>
</svg>